{"title":"Dilwale {2015} 1/3 DesiScr Rip XviD AC3 {Team DUS} - jnmjy","uid":13033587,"size":1561221786,"categoryP":"video","categoryS":"movies","magnet":"?xt=urn:btih:521c7836444b33053a17a0ffc99659abc35dbdbb&amp;dn=Dilwale+%7B2015%7D+1%2F3+DesiScr+Rip+XviD+AC3+%7BTeam+DUS%7D+-+jnmjy&amp;tr=udp%3A%2F%2Ftracker.leechers-paradise.org%3A6969&amp;tr=udp%3A%2F%2Fzer0day.ch%3A1337&amp;tr=udp%3A%2F%2Fopen.demonii.com%3A1337&amp;tr=udp%3A%2F%2Ftracker.coppersurfer.tk%3A6969&amp;tr=udp%3A%2F%2Fexodus.desync.com%3A6969","seeders":1,"leechers":0,"uploader":"makintos13","files":1,"time":1450457650,"description":"screens;\r\n \nhttp://imgmak.com/KzS \nhttp://imgmak.com/KzZ \nhttp://imgmak.com/Kzc \nhttp://imgmak.com/Kzn \nhttp://imgmak.com/Kzr \nhttp://imgmak.com/KzB\r\n\r\nYear.............: 2015\r\nSource: A DUS Exclusive from the awesome Sher bro!\r\nRipper...........: jnmjy\r\n\r\nGeneral\r\nFormat                                   : AVI\r\nFormat/Info                              : Audio Video Interleave\r\nFile size                                : 1.45 GiB\r\nDuration                                 : 2h 33mn\r\nOverall bit rate                         : 1 357 Kbps\r\n\r\nVideo\r\nID                                       : 0\r\nFormat                                   : MPEG-4 Visual\r\nFormat profile                           : Advanced   \r\nFormat settings, BVOP                    : 2\r\nFormat settings, QPel                    : No\r\nFormat settings, GMC                     : No warppoints\r\nFormat settings, Matrix                  : Default (H.263)\r\nCodec ID                                 : XVID\r\nCodec ID/Hint                            : XviD\r\nDuration                                 : 2h 33mn\r\nBit rate                                 : 1 094 Kbps\r\nWidth                                    : 720 pixels\r\nHeight                                   : 304 pixels\r\nDisplay aspect ratio                     : 2.35:1\r\nFrame rate                               : 23.976 fps\r\nColor space                              : YUV\r\nChroma subsampling                       : 4:2:0\r\nBit depth                                : 8 bits\r\nScan type                                : Progressive\r\nCompression mode                         : Lossy\r\nBits/(Pixel*Frame)                       : 0.208\r\nStream size                              : 1.17 GiB (81%)\r\nWriting library                          : XviD 67\r\n\r\nAudio\r\nID                                       : 1\r\nFormat                                   : AC-3\r\nFormat/Info                              : Audio Coding 3\r\nMode extension                           : CM (complete main)\r\nFormat settings, Endianness              : Big\r\nCodec ID                                 : 2000\r\nDuration                                 : 2h 33mn\r\nBit rate mode                            : Constant\r\nBit rate                                 : 256 Kbps\r\nChannel(s)                               : 2 channels\r\nChannel positions                        : Front: L R\r\nSampling rate                            : 48.0 KHz\r\nCompression mode                         : Lossy\r\nStream size                              : 281 MiB (19%)\r\nAlignment                                : Aligned on interleaves\r\nInterleave, duration                     : 64 ms (1.53 video frames)\r\nInterleave, preload duration             : 192 ms","torrent":{"xt":"urn:btih:521c7836444b33053a17a0ffc99659abc35dbdbb","amp;dn":"Dilwale+%7B2015%7D+1%2F3+DesiScr+Rip+XviD+AC3+%7BTeam+DUS%7D+-+jnmjy","amp;tr":["udp%3A%2F%2Ftracker.leechers-paradise.org%3A6969","udp%3A%2F%2Fzer0day.ch%3A1337","udp%3A%2F%2Fopen.demonii.com%3A1337","udp%3A%2F%2Ftracker.coppersurfer.tk%3A6969","udp%3A%2F%2Fexodus.desync.com%3A6969"],"infoHash":"521c7836444b33053a17a0ffc99659abc35dbdbb","infoHashBuffer":{"type":"Buffer","data":[82,28,120,54,68,75,51,5,58,23,160,255,201,150,89,171,195,93,189,187]},"announce":[],"urlList":[]}}